<svg width="800" height="144" viewBox="0 0 800 144" fill="none" xmlns="http://www.w3.org/2000/svg">
<path d="M54.6964 6.56811L67.0364 47.0149C67.3635 48.0484 68.011 48.9511 68.885 49.5916C69.7591 50.2321 70.8143 50.577 71.8976 50.577C72.9809 50.577 74.0361 50.2321 74.9102 49.5916C75.7842 48.9511 76.4317 48.0484 76.7588 47.0149L89.1328 6.56811C89.36 5.80826 89.4071 5.00564 89.2703 4.2244C89.1335 3.44316 88.8166 2.70442 88.3448 2.06714C87.8729 1.42987 87.2591 0.91155 86.552 0.553118C85.845 0.194686 85.0642 0.00621025 84.2716 0.00248743H59.6936C58.8872 -0.0228033 58.0864 0.145069 57.3579 0.492075C56.6294 0.839081 55.9943 1.3551 55.5054 1.99738C55.0166 2.63966 54.6881 3.38955 54.5474 4.18454C54.4066 4.97953 54.4577 5.79687 54.6964 6.56811Z" fill="white"/>
<path d="M137.405 54.7723L97.0196 67.1549C95.9868 67.4822 95.0851 68.1302 94.445 69.0048C93.805 69.8795 93.46 70.9355 93.46 72.0196C93.46 73.1037 93.805 74.1593 94.445 75.0339C95.0851 75.9086 95.9868 76.5566 97.0196 76.8839L137.405 89.2324C138.167 89.4662 138.972 89.5182 139.757 89.3844C140.542 89.2505 141.285 88.9346 141.926 88.4617C142.568 87.9888 143.089 87.372 143.449 86.6611C143.809 85.9502 143.998 85.1651 144 84.3681V59.637C143.998 58.84 143.809 58.0545 143.449 57.3436C143.089 56.6327 142.568 56.0159 141.926 55.543C141.285 55.0701 140.542 54.7542 139.757 54.6203C138.972 54.4865 138.167 54.5385 137.405 54.7723Z" fill="white"/>
<path d="M89.269 137.433L76.895 96.9859C76.5679 95.9524 75.9204 95.0501 75.0464 94.4096C74.1723 93.7692 73.1171 93.4238 72.0338 93.4238C70.9505 93.4238 69.8953 93.7692 69.0212 94.4096C68.1472 95.0501 67.4997 95.9524 67.1726 96.9859L54.6966 137.433C54.4618 138.193 54.4091 138.998 54.5428 139.782C54.6765 140.566 54.9928 141.308 55.4661 141.947C55.9394 142.587 56.5565 143.105 57.2673 143.462C57.9781 143.818 58.7628 144.002 59.5578 143.998H84.2718C85.0759 144.016 85.8727 143.843 86.5972 143.494C87.3218 143.145 87.9535 142.629 88.4408 141.989C88.9281 141.349 89.2571 140.602 89.4011 139.81C89.545 139.019 89.4998 138.204 89.269 137.433Z" fill="white"/>
<path d="M92.6674 58.2075L141.246 33.0342C142.072 32.6016 142.765 31.9519 143.25 31.1548C143.735 30.3576 143.994 29.4433 143.999 28.51V5.10573C143.999 3.75241 143.462 2.4545 142.506 1.49756C141.549 0.540624 140.252 0.00305218 138.9 0.00305218H115.512C114.577 -0.00347429 113.658 0.250924 112.86 0.737641C112.061 1.22436 111.414 1.92433 110.99 2.7587L85.8345 51.3358C85.3484 52.2937 85.1767 53.3808 85.344 54.442C85.5114 55.5031 86.0091 56.4843 86.7663 57.2458C87.5236 58.0073 88.5016 58.5103 89.5612 58.683C90.6208 58.8557 91.7078 58.6892 92.6674 58.2075Z" fill="white"/>
<path d="M47.082 67.1533L6.66255 54.7708C5.90297 54.5359 5.09877 54.4834 4.31505 54.6172C3.53133 54.7509 2.79009 55.0675 2.15129 55.5411C1.51249 56.0147 0.994072 56.632 0.637987 57.3433C0.281903 58.0546 0.0981671 58.84 0.10161 59.6355V84.3666C0.0981671 85.1621 0.281903 85.947 0.637987 86.6584C0.994072 87.3697 1.51249 87.9874 2.15129 88.461C2.79009 88.9346 3.53133 89.2512 4.31505 89.3849C5.09877 89.5187 5.90297 89.4658 6.66255 89.2309L47.082 76.8824C48.1148 76.5551 49.0165 75.9071 49.6566 75.0324C50.2966 74.1578 50.6416 73.1022 50.6416 72.0181C50.6416 70.934 50.2966 69.878 49.6566 69.0033C49.0165 68.1287 48.1148 67.4806 47.082 67.1533Z" fill="white"/>
<path d="M85.8351 92.6672L110.991 141.245C111.414 142.079 112.062 142.779 112.86 143.265C113.659 143.752 114.577 144.006 115.512 144H138.9C140.253 144 141.55 143.462 142.506 142.505C143.462 141.549 144 140.251 144 138.897V115.663C143.995 114.73 143.736 113.816 143.251 113.018C142.766 112.221 142.073 111.572 141.246 111.139L92.6679 85.9658C91.7256 85.5196 90.6691 85.3732 89.6411 85.5463C88.613 85.7195 87.6627 86.2039 86.9181 86.9341C86.1736 87.6644 85.6706 88.6053 85.4769 89.6304C85.2833 90.6555 85.4083 91.7153 85.8351 92.6672Z" fill="white"/>
<path d="M58.2662 51.3357L33.1102 2.75857C32.6808 1.92916 32.0322 1.23336 31.2349 0.747485C30.4377 0.261608 29.5224 0.0040998 28.5889 0.00292969H5.16674C3.82025 0.0119126 2.53198 0.553516 1.58304 1.50948C0.634097 2.46545 0.101533 3.75816 0.101563 5.1056V28.5099C0.102732 29.444 0.360116 30.3598 0.845659 31.1576C1.3312 31.9554 2.02627 32.6044 2.85511 33.0341L51.3993 58.2074C52.3598 58.7018 53.4525 58.8781 54.5197 58.7111C55.5869 58.544 56.5735 58.0424 57.3373 57.278C58.1012 56.5137 58.6027 55.5264 58.7696 54.4584C58.9365 53.3905 58.7603 52.2969 58.2662 51.3357Z" fill="white"/>
<path d="M51.2977 85.7945L2.75355 110.968C1.9247 111.397 1.22961 112.047 0.744071 112.844C0.258527 113.642 0.00116931 114.558 1.26096e-09 115.492V138.896C-2.99216e-05 140.244 0.532509 141.536 1.48145 142.492C2.43039 143.448 3.71869 143.99 5.06517 143.999H28.4874C29.4209 143.998 30.3361 143.74 31.1333 143.254C31.9306 142.769 32.5793 142.073 33.0087 141.244L58.1646 92.6662C58.6587 91.705 58.835 90.6114 58.668 89.5435C58.5011 88.4755 57.9996 87.4882 57.2358 86.7239C56.472 85.9595 55.4853 85.4579 54.4181 85.2908C53.3509 85.1238 52.2583 85.3001 51.2977 85.7945Z" fill="white"/>
<path d="M770.948 116.186C764.099 116.186 758.011 114.747 752.684 111.869C747.441 108.907 743.298 104.886 740.254 99.8075C737.294 94.7291 735.814 88.8888 735.814 82.2868C735.814 77.039 736.66 72.2567 738.351 67.94C740.042 63.6233 742.368 59.8991 745.327 56.7673C748.371 53.5509 751.965 51.0963 756.108 49.4035C760.336 47.626 764.902 46.7373 769.806 46.7373C774.119 46.7373 778.135 47.5837 781.856 49.2765C785.576 50.8847 788.789 53.1277 791.495 56.0056C794.285 58.8834 796.399 62.3113 797.837 66.2895C799.359 70.183 800.078 74.4574 799.993 79.1127L799.866 84.699H745.454L742.537 74.2881H788.578L786.675 76.4465V73.3994C786.422 70.6062 785.492 68.1093 783.885 65.9086C782.278 63.7079 780.249 61.9728 777.797 60.7032C775.345 59.4335 772.681 58.7987 769.806 58.7987C765.24 58.7987 761.393 59.6875 758.264 61.4649C755.136 63.1578 752.768 65.697 751.162 69.0827C749.555 72.3837 748.752 76.4888 748.752 81.398C748.752 86.0533 749.724 90.1161 751.669 93.5864C753.614 96.972 756.362 99.5959 759.913 101.458C763.465 103.32 767.566 104.251 772.216 104.251C775.514 104.251 778.558 103.701 781.348 102.601C784.223 101.5 787.31 99.5113 790.607 96.6335L797.203 105.902C795.173 107.933 792.679 109.711 789.719 111.234C786.844 112.758 783.758 113.985 780.46 114.916C777.247 115.762 774.076 116.186 770.948 116.186Z" fill="white"/>
<path d="M704.085 116.186C698.504 116.186 693.473 115.212 688.992 113.266C684.51 111.319 680.79 108.441 677.83 104.632L686.709 97.0144C689.245 99.9768 691.993 102.135 694.953 103.489C697.997 104.759 701.421 105.394 705.227 105.394C706.749 105.394 708.144 105.225 709.412 104.886C710.765 104.463 711.907 103.87 712.837 103.109C713.851 102.347 714.612 101.458 715.12 100.442C715.627 99.342 715.881 98.157 715.881 96.8874C715.881 94.6867 715.077 92.9092 713.471 91.555C712.625 90.9625 711.272 90.3277 709.412 89.6505C707.636 88.8888 705.311 88.127 702.436 87.3652C697.532 86.0956 693.515 84.6567 690.387 83.0485C687.258 81.4403 684.848 79.6205 683.157 77.5891C681.889 75.9809 680.959 74.2458 680.367 72.3837C679.775 70.4369 679.479 68.3209 679.479 66.0356C679.479 63.2424 680.071 60.7031 681.255 58.4178C682.523 56.0479 684.214 54.0165 686.328 52.3236C688.527 50.5462 691.063 49.1919 693.938 48.2608C696.898 47.3298 700.026 46.8643 703.324 46.8643C706.453 46.8643 709.539 47.2875 712.583 48.1339C715.712 48.9803 718.587 50.2076 721.208 51.8158C723.829 53.424 726.027 55.3284 727.803 57.5291L720.32 65.7816C718.713 64.1734 716.938 62.7769 714.993 61.5919C713.133 60.3223 711.23 59.3489 709.285 58.6717C707.34 57.9946 705.565 57.656 703.958 57.656C702.182 57.656 700.576 57.8253 699.138 58.1639C697.701 58.5025 696.475 59.0103 695.46 59.6874C694.53 60.3646 693.811 61.211 693.304 62.2267C692.797 63.2424 692.543 64.3851 692.543 65.6547C692.628 66.755 692.881 67.813 693.304 68.8287C693.811 69.7598 694.488 70.5639 695.333 71.241C696.263 71.9182 697.659 72.6376 699.519 73.3994C701.379 74.1611 703.747 74.8806 706.622 75.5577C710.85 76.6581 714.316 77.8854 717.022 79.2396C719.813 80.5093 722.011 81.9905 723.618 83.6833C725.309 85.2915 726.493 87.1536 727.169 89.2697C727.845 91.3857 728.184 93.7557 728.184 96.3796C728.184 100.188 727.084 103.616 724.886 106.663C722.772 109.626 719.897 111.954 716.261 113.646C712.625 115.339 708.567 116.186 704.085 116.186Z" fill="white"/>
<path d="M454.262 114.917V48.3452H467.326V53.2434C474.476 45.9409 482.745 46.8648 489.141 46.8648C494.215 46.8648 498.443 47.8805 501.825 49.9119C505.207 51.8587 507.744 54.8635 509.435 58.9263C511.126 62.989 511.972 68.1099 511.972 74.2887V114.917H498.908V75.1774C498.908 71.3685 498.4 68.2368 497.386 65.7822C496.371 63.243 494.807 61.4232 492.693 60.3228C490.579 59.1379 487.958 58.63 484.829 58.7993C482.292 58.7993 479.967 59.2225 477.853 60.0689C475.739 60.8307 473.879 61.931 472.272 63.3699C470.75 64.8088 469.524 66.5017 468.594 68.4484C467.749 70.3105 467.326 72.3419 467.326 74.5426V114.917H460.857C459.758 114.917 458.659 114.917 457.559 114.917C456.46 114.917 455.361 114.917 454.262 114.917Z" fill="white"/>
<path d="M421.282 114.916V48.261H434.346V114.916H421.282ZM427.624 33.5334C424.834 33.5334 422.678 32.814 421.156 31.3751C419.634 29.9362 418.873 27.9048 418.873 25.2809C418.873 22.8263 419.634 20.8372 421.156 19.3136C422.762 17.7901 424.918 17.0283 427.624 17.0283C430.415 17.0283 432.571 17.7478 434.093 19.1867C435.615 20.6256 436.376 22.657 436.376 25.2809C436.376 27.7355 435.573 29.7245 433.966 31.2481C432.444 32.7716 430.33 33.5334 427.624 33.5334Z" fill="white"/>
<path fill-rule="evenodd" clip-rule="evenodd" d="M349.389 111.615C353.955 114.662 358.986 116.186 364.482 116.186C378.008 116.186 384.07 110.973 387.463 108.055C387.541 107.988 387.617 107.922 387.693 107.858V114.916H400.884V48.2608H387.693V55.5808C385.11 52.7084 377.914 46.8643 365.623 46.8643C359.789 46.8643 354.504 48.3455 349.769 51.3079C345.118 54.2704 341.398 58.3755 338.608 63.6233C335.902 68.7864 334.549 74.7113 334.549 81.398C334.549 88 335.902 93.925 338.608 99.1727C341.313 104.421 344.907 108.568 349.389 111.615ZM377.877 101.205C374.888 103.152 371.443 104.125 367.542 104.125C363.723 104.125 360.319 103.152 357.331 101.205C354.425 99.2582 352.101 96.592 350.358 93.2063C348.697 89.736 347.867 85.8002 347.867 81.3989C347.867 77.0821 348.697 73.2309 350.358 69.8453C352.101 66.4596 354.425 63.7934 357.331 61.8467C360.319 59.8999 363.723 58.9265 367.542 58.9265C371.443 58.9265 374.888 59.8999 377.877 61.8467C380.865 63.7934 383.19 66.4596 384.85 69.8453C386.593 73.2309 387.465 77.0821 387.465 81.3989C387.465 85.8002 386.593 89.736 384.85 93.2063C383.19 96.592 380.865 99.2582 377.877 101.205Z" fill="white"/>
<path d="M267.04 114.918V20.9658H280.104V53.2447C287.255 45.9422 295.524 46.8661 301.92 46.8661C306.993 46.8661 311.221 47.8818 314.603 49.9132C317.986 51.86 320.522 54.8648 322.213 58.9276C323.905 62.9903 324.75 68.1112 324.75 74.29V114.918H311.686V75.1787C311.686 71.3699 311.179 68.2381 310.164 65.7835C309.149 63.2443 307.585 61.4245 305.471 60.3241C303.357 59.1392 300.736 58.6313 297.607 58.8006C295.071 58.8006 292.745 59.2238 290.631 60.0702C288.517 60.832 286.657 61.9323 285.051 63.3712C283.529 64.8101 282.303 66.503 281.372 68.4497C280.527 70.3118 280.104 72.3432 280.104 74.5439V114.918H273.635C272.536 114.918 271.437 114.918 270.338 114.918C269.239 114.918 268.139 114.918 267.04 114.918Z" fill="white"/>
<path d="M227.448 116.186C221.276 116.186 215.737 114.662 210.833 111.615C206.013 108.568 202.166 104.421 199.291 99.1727C196.501 93.925 195.105 88.0424 195.105 81.525C195.105 75.0076 196.501 69.125 199.291 63.8772C202.166 58.6294 206.013 54.482 210.833 51.4349C215.737 48.3878 221.276 46.8643 227.448 46.8643C233.367 46.8643 238.737 48.0916 243.557 50.5462C248.461 52.9161 252.181 56.1748 254.718 60.3223L247.488 69.2096C246.136 67.2629 244.402 65.4854 242.288 63.8772C240.174 62.269 237.934 60.9994 235.566 60.0683C233.198 59.1373 230.915 58.6717 228.717 58.6717C224.658 58.6717 221.022 59.6874 217.809 61.7188C214.68 63.6656 212.186 66.3741 210.326 69.8444C208.465 73.3147 207.535 77.2083 207.535 81.525C207.535 85.8417 208.508 89.7352 210.453 93.2055C212.397 96.5912 214.976 99.2997 218.189 101.331C221.403 103.362 224.954 104.378 228.844 104.378C231.127 104.378 233.325 103.997 235.439 103.236C237.638 102.474 239.751 101.331 241.781 99.8075C243.81 98.284 245.713 96.4219 247.488 94.2212L254.718 103.109C252.012 106.917 248.123 110.049 243.049 112.504C238.06 114.958 232.86 116.186 227.448 116.186Z" fill="white"/>
<path fill-rule="evenodd" clip-rule="evenodd" d="M577.742 111.619C573.176 114.666 568.145 116.189 562.648 116.189C549.123 116.189 543.06 110.976 539.668 108.059C539.59 107.992 539.513 107.926 539.438 107.861V114.92H526.247V20.8604H539.438V55.5842C542.02 52.7119 549.217 46.8677 561.507 46.8677C567.341 46.8677 572.626 48.3489 577.361 51.3114C582.012 54.2739 585.732 58.379 588.523 63.6268C591.229 68.7899 592.582 74.7148 592.582 81.4015C592.582 88.0035 591.229 93.9284 588.523 99.1762C585.817 104.424 582.223 108.571 577.742 111.619ZM549.255 101.206C552.243 103.152 555.689 104.126 559.59 104.126C563.409 104.126 566.813 103.152 569.801 101.206C572.707 99.2588 575.031 96.5926 576.774 93.2069C578.435 89.7366 579.265 85.8008 579.265 81.3995C579.265 77.0827 578.435 73.2315 576.774 69.8459C575.031 66.4602 572.707 63.794 569.801 61.8473C566.813 59.9005 563.409 58.9271 559.59 58.9271C555.689 58.9271 552.243 59.9005 549.255 61.8473C546.266 63.794 543.942 66.4602 542.282 69.8459C540.538 73.2315 539.667 77.0827 539.667 81.3995C539.667 85.8008 540.538 89.7366 542.282 93.2069C543.942 96.5926 546.266 99.2588 549.255 101.206Z" fill="white"/>
<path fill-rule="evenodd" clip-rule="evenodd" d="M614.86 111.615C619.426 114.662 624.457 116.186 629.954 116.186C643.479 116.186 649.542 110.973 652.934 108.055C653.012 107.988 653.089 107.922 653.164 107.858V114.916H666.355V48.2608H653.164V55.5808C650.582 52.7084 643.386 46.8643 631.095 46.8643C625.261 46.8643 619.976 48.3455 615.241 51.3079C610.59 54.2704 606.87 58.3755 604.079 63.6233C601.373 68.7864 600.021 74.7113 600.021 81.398C600.021 88 601.373 93.925 604.079 99.1727C606.785 104.421 610.379 108.568 614.86 111.615ZM643.347 101.206C640.359 103.153 636.913 104.126 633.012 104.126C629.193 104.126 625.79 103.153 622.801 101.206C619.896 99.2592 617.571 96.593 615.828 93.2073C614.168 89.737 613.337 85.8012 613.337 81.3998C613.337 77.0831 614.168 73.2319 615.828 69.8463C617.571 66.4606 619.896 63.7944 622.801 61.8476C625.79 59.9009 629.193 58.9275 633.012 58.9275C636.913 58.9275 640.359 59.9009 643.347 61.8476C646.336 63.7944 648.66 66.4606 650.32 69.8463C652.064 73.2319 652.935 77.0831 652.935 81.3998C652.935 85.8012 652.064 89.737 650.32 93.2073C648.66 96.593 646.336 99.2592 643.347 101.206Z" fill="white"/>
</svg>
