<svg width="804" height="144" viewBox="0 0 804 144" fill="none" xmlns="http://www.w3.org/2000/svg">
<path d="M54.6969 6.56811L67.0368 47.0149C67.3639 48.0484 68.0114 48.9511 68.8855 49.5916C69.7595 50.2321 70.8147 50.577 71.898 50.577C72.9814 50.577 74.0366 50.2321 74.9106 49.5916C75.7847 48.9511 76.4322 48.0484 76.7592 47.0149L89.1332 6.56811C89.3604 5.80826 89.4075 5.00564 89.2707 4.2244C89.1339 3.44316 88.817 2.70442 88.3452 2.06714C87.8733 1.42987 87.2595 0.911549 86.5525 0.553118C85.8454 0.194686 85.0646 0.00621025 84.272 0.00248743H59.694C58.8876 -0.0228033 58.0868 0.145069 57.3584 0.492075C56.6299 0.839081 55.9948 1.3551 55.5059 1.99738C55.017 2.63966 54.6886 3.38955 54.5479 4.18454C54.4071 4.97953 54.4582 5.79687 54.6969 6.56811Z" fill="black"/>
<path d="M137.405 54.7723L97.0196 67.1549C95.9868 67.4822 95.0851 68.1302 94.445 69.0048C93.805 69.8795 93.46 70.9355 93.46 72.0196C93.46 73.1037 93.805 74.1593 94.445 75.0339C95.0851 75.9086 95.9868 76.5566 97.0196 76.8839L137.405 89.2324C138.166 89.4662 138.972 89.5182 139.757 89.3844C140.542 89.2505 141.285 88.9346 141.926 88.4617C142.567 87.9888 143.089 87.372 143.449 86.6611C143.809 85.9502 143.998 85.1651 144 84.3681V59.637C143.998 58.84 143.809 58.0545 143.449 57.3436C143.089 56.6327 142.567 56.0159 141.926 55.543C141.285 55.0701 140.542 54.7542 139.757 54.6203C138.972 54.4865 138.166 54.5385 137.405 54.7723Z" fill="black"/>
<path d="M89.2694 137.433L76.8955 96.9859C76.5684 95.9524 75.9209 95.0501 75.0468 94.4096C74.1728 93.7692 73.1176 93.4238 72.0343 93.4238C70.9509 93.4238 69.8958 93.7692 69.0217 94.4096C68.1476 95.0501 67.5001 95.9524 67.1731 96.9859L54.6971 137.433C54.4623 138.193 54.4096 138.998 54.5433 139.782C54.677 140.567 54.9933 141.308 55.4666 141.947C55.9399 142.587 56.5569 143.106 57.2678 143.462C57.9786 143.818 58.7633 144.002 59.5583 143.998H84.2723C85.0763 144.016 85.8731 143.843 86.5976 143.494C87.3222 143.145 87.9539 142.629 88.4412 141.989C88.9285 141.349 89.2575 140.602 89.4015 139.81C89.5454 139.019 89.5002 138.204 89.2694 137.433Z" fill="black"/>
<path d="M92.6669 58.2075L141.245 33.0342C142.071 32.6016 142.764 31.9519 143.25 31.1548C143.735 30.3576 143.994 29.4433 143.999 28.51V5.10573C143.999 3.75241 143.461 2.4545 142.505 1.49756C141.549 0.540624 140.252 0.00305218 138.899 0.00305218H115.511C114.576 -0.00347429 113.658 0.250924 112.859 0.737641C112.061 1.22436 111.413 1.92433 110.99 2.7587L85.8341 51.3358C85.3479 52.2937 85.1762 53.3808 85.3436 54.442C85.5109 55.5031 86.0086 56.4842 86.7658 57.2458C87.5231 58.0073 88.5011 58.5103 89.5607 58.683C90.6203 58.8557 91.7073 58.6892 92.6669 58.2075Z" fill="black"/>
<path d="M47.0824 67.1533L6.66302 54.7708C5.90345 54.5359 5.09925 54.4834 4.31553 54.6172C3.53182 54.7509 2.79057 55.0675 2.15177 55.5411C1.51297 56.0147 0.994558 56.632 0.638474 57.3433C0.282391 58.0546 0.0986554 58.84 0.102098 59.6355V84.3666C0.0986554 85.1621 0.282391 85.947 0.638474 86.6584C0.994558 87.3697 1.51297 87.9874 2.15177 88.461C2.79057 88.9346 3.53182 89.2512 4.31553 89.3849C5.09925 89.5187 5.90345 89.4658 6.66302 89.2309L47.0824 76.8824C48.1152 76.5551 49.0169 75.9071 49.657 75.0324C50.297 74.1578 50.642 73.1021 50.642 72.0181C50.642 70.934 50.297 69.878 49.657 69.0033C49.0169 68.1287 48.1152 67.4806 47.0824 67.1533Z" fill="black"/>
<path d="M85.8356 92.6672L110.991 141.245C111.415 142.079 112.062 142.779 112.861 143.265C113.659 143.752 114.578 144.006 115.513 144H138.901C140.253 144 141.55 143.462 142.507 142.505C143.463 141.549 144 140.251 144 138.897V115.663C143.995 114.73 143.736 113.816 143.251 113.018C142.766 112.221 142.073 111.572 141.246 111.139L92.6684 85.9658C91.726 85.5196 90.6696 85.3732 89.6415 85.5463C88.6135 85.7195 87.6632 86.2039 86.9186 86.9341C86.1741 87.6644 85.6711 88.6053 85.4774 89.6304C85.2838 90.6555 85.4088 91.7153 85.8356 92.6672Z" fill="black"/>
<path d="M58.2665 51.3357L33.1106 2.75857C32.6812 1.92916 32.0326 1.23336 31.2353 0.747485C30.4381 0.261608 29.5228 0.0040998 28.5894 0.00292969H5.16721C3.82073 0.0119126 2.53246 0.553516 1.58352 1.50948C0.634584 2.46545 0.102021 3.75816 0.102051 5.1056V28.5099C0.10322 29.444 0.360603 30.3598 0.846146 31.1576C1.33169 31.9554 2.02675 32.6044 2.85559 33.0341L51.3996 58.2074C52.3602 58.7018 53.4529 58.8781 54.5201 58.7111C55.5873 58.544 56.5739 58.0424 57.3377 57.278C58.1015 56.5137 58.603 55.5264 58.77 54.4584C58.9369 53.3905 58.7606 52.2969 58.2665 51.3357Z" fill="black"/>
<path d="M51.2976 85.7945L2.75354 110.968C1.9247 111.397 1.22961 112.047 0.744069 112.844C0.258527 113.642 0.00116931 114.558 1.26096e-09 115.492V138.896C-2.99216e-05 140.244 0.532508 141.536 1.48145 142.492C2.43039 143.448 3.71868 143.99 5.06516 143.999H28.4873C29.4208 143.998 30.336 143.74 31.1333 143.254C31.9305 142.769 32.5792 142.073 33.0086 141.244L58.1644 92.6662C58.6585 91.705 58.8348 90.6114 58.6679 89.5435C58.501 88.4755 57.9995 87.4882 57.2357 86.7239C56.4719 85.9595 55.4852 85.4579 54.418 85.2908C53.3508 85.1238 52.2581 85.3001 51.2976 85.7945Z" fill="black"/>
<path d="M774.803 116.186C767.919 116.186 761.801 114.747 756.447 111.869C751.178 108.907 747.014 104.887 743.955 99.808C740.981 94.7295 739.494 88.8893 739.494 82.2872C739.494 77.0395 740.343 72.2572 742.043 67.9405C743.743 63.6238 746.08 59.8995 749.054 56.7678C752.113 53.5514 755.725 51.0968 759.889 49.404C764.138 47.6265 768.727 46.7378 773.655 46.7378C777.989 46.7378 782.026 47.5842 785.765 49.277C789.504 50.8852 792.733 53.1282 795.453 56.006C798.257 58.8839 800.382 62.3118 801.826 66.29C803.356 70.1835 804.078 74.4579 803.993 79.1132L803.866 84.6995H749.181L746.25 74.2886H792.521L790.609 76.447V73.3999C790.354 70.6067 789.419 68.1098 787.805 65.9091C786.19 63.7084 784.15 61.9733 781.686 60.7036C779.222 59.434 776.545 58.7992 773.655 58.7992C769.067 58.7992 765.2 59.6879 762.056 61.4654C758.911 63.1582 756.532 65.6975 754.917 69.0832C753.303 72.3842 752.496 76.4893 752.496 81.3985C752.496 86.0538 753.473 90.1166 755.427 93.5869C757.382 96.9725 760.144 99.5964 763.713 101.459C767.282 103.321 771.403 104.252 776.077 104.252C779.392 104.252 782.451 103.702 785.255 102.601C788.144 101.501 791.246 99.5118 794.56 96.634L801.189 105.902C799.149 107.934 796.642 109.711 793.668 111.235C790.779 112.758 787.677 113.986 784.363 114.917C781.134 115.763 777.947 116.186 774.803 116.186Z" fill="black"/>
<path d="M707.605 116.186C701.997 116.186 696.94 115.213 692.437 113.266C687.933 111.319 684.194 108.441 681.219 104.633L690.142 97.0149C692.692 99.9773 695.453 102.136 698.428 103.49C701.487 104.76 704.929 105.394 708.753 105.394C710.282 105.394 711.684 105.225 712.959 104.887C714.319 104.463 715.466 103.871 716.401 103.109C717.421 102.347 718.185 101.459 718.695 100.443C719.205 99.3425 719.46 98.1575 719.46 96.8879C719.46 94.6872 718.653 92.9097 717.038 91.5555C716.188 90.963 714.829 90.3282 712.959 89.651C711.175 88.8893 708.838 88.1275 705.948 87.3657C701.019 86.0961 696.983 84.6572 693.839 83.049C690.694 81.4408 688.273 79.621 686.573 77.5896C685.298 75.9814 684.364 74.2463 683.769 72.3842C683.174 70.4374 682.876 68.3214 682.876 66.036C682.876 63.2429 683.471 60.7036 684.661 58.4183C685.936 56.0483 687.635 54.017 689.76 52.3241C691.969 50.5467 694.519 49.1924 697.408 48.2613C700.382 47.3303 703.526 46.8647 706.841 46.8647C709.985 46.8647 713.087 47.288 716.146 48.1344C719.29 48.9808 722.179 50.2081 724.814 51.8163C727.448 53.4245 729.658 55.3289 731.442 57.5296L723.922 65.7821C722.307 64.1739 720.522 62.7774 718.568 61.5924C716.698 60.3227 714.786 59.3494 712.832 58.6722C710.877 57.9951 709.093 57.6565 707.478 57.6565C705.693 57.6565 704.079 57.8258 702.634 58.1644C701.189 58.503 699.957 59.0108 698.938 59.6879C698.003 60.3651 697.28 61.2115 696.771 62.2272C696.261 63.2429 696.006 64.3855 696.006 65.6552C696.091 66.7555 696.346 67.8135 696.771 68.8292C697.28 69.7603 697.96 70.5644 698.81 71.2415C699.745 71.9186 701.147 72.6381 703.017 73.3999C704.886 74.1616 707.266 74.8811 710.155 75.5582C714.404 76.6586 717.888 77.8859 720.607 79.2401C723.412 80.5098 725.621 81.991 727.236 83.6838C728.935 85.292 730.125 87.1541 730.805 89.2702C731.485 91.3862 731.825 93.7561 731.825 96.38C731.825 100.189 730.72 103.617 728.51 106.664C726.386 109.626 723.497 111.954 719.842 113.647C716.188 115.34 712.109 116.186 707.605 116.186Z" fill="black"/>
<path d="M456.533 114.917V48.3457H469.663V53.2439C476.849 45.9414 485.159 46.8653 491.587 46.8653C496.686 46.8653 500.935 47.881 504.334 49.9124C507.733 51.8592 510.283 54.8639 511.982 58.9267C513.682 62.9895 514.532 68.1103 514.532 74.2892V114.917H501.402V75.1779C501.402 71.369 500.893 68.2373 499.873 65.7827C498.853 63.2435 497.281 61.4237 495.156 60.3233C493.032 59.1383 490.398 58.6305 487.253 58.7998C484.704 58.7998 482.367 59.223 480.243 60.0694C478.118 60.8312 476.248 61.9315 474.634 63.3704C473.104 64.8093 471.872 66.5021 470.937 68.4489C470.087 70.311 469.663 72.3424 469.663 74.5431V114.917H463.162C462.057 114.917 460.952 114.917 459.847 114.917C458.743 114.917 457.638 114.917 456.533 114.917Z" fill="black"/>
<path d="M423.389 114.916V48.261H436.519V114.916H423.389ZM429.763 33.5334C426.958 33.5334 424.791 32.814 423.262 31.3751C421.732 29.9362 420.967 27.9048 420.967 25.2809C420.967 22.8263 421.732 20.8372 423.262 19.3136C424.876 17.7901 427.043 17.0283 429.763 17.0283C432.567 17.0283 434.734 17.7478 436.264 19.1867C437.793 20.6256 438.558 22.657 438.558 25.2809C438.558 27.7355 437.751 29.7245 436.136 31.2481C434.607 32.7716 432.482 33.5334 429.763 33.5334Z" fill="black"/>
<path fill-rule="evenodd" clip-rule="evenodd" d="M351.136 111.615C355.725 114.662 360.781 116.185 366.304 116.185C379.898 116.185 385.99 110.972 389.4 108.055C389.479 107.988 389.556 107.922 389.631 107.857V114.916H402.888V48.2604H389.631V55.5803C387.036 52.7079 379.804 46.8638 367.452 46.8638C361.588 46.8638 356.277 48.345 351.518 51.3074C346.844 54.2699 343.105 58.375 340.301 63.6228C337.581 68.7859 336.222 74.7108 336.222 81.3975C336.222 87.9995 337.581 93.9245 340.301 99.1722C343.02 104.42 346.632 108.567 351.136 111.615ZM379.767 101.204C376.763 103.151 373.301 104.124 369.38 104.124C365.542 104.124 362.121 103.151 359.118 101.204C356.198 99.2574 353.862 96.5911 352.11 93.2055C350.441 89.7352 349.607 85.7994 349.607 81.398C349.607 77.0813 350.441 73.2301 352.11 69.8444C353.862 66.4588 356.198 63.7926 359.118 61.8458C362.121 59.899 365.542 58.9257 369.38 58.9257C373.301 58.9257 376.763 59.899 379.767 61.8458C382.77 63.7926 385.106 66.4588 386.775 69.8444C388.527 73.2301 389.403 77.0813 389.403 81.398C389.403 85.7994 388.527 89.7352 386.775 93.2055C385.106 96.5911 382.77 99.2574 379.767 101.204Z" fill="black"/>
<path d="M268.375 114.918V20.9658H281.504V53.2447C288.691 45.9422 297.001 46.8661 303.429 46.8661C308.528 46.8661 312.777 47.8818 316.176 49.9132C319.575 51.86 322.125 54.8648 323.824 58.9276C325.524 62.9904 326.374 68.1112 326.374 74.29V114.918H313.244V75.1787C313.244 71.3699 312.734 68.2381 311.715 65.7835C310.695 63.2443 309.123 61.4245 306.998 60.3241C304.874 59.1392 302.239 58.6313 299.095 58.8006C296.546 58.8006 294.209 59.2238 292.084 60.0702C289.96 60.832 288.09 61.9323 286.476 63.3712C284.946 64.8101 283.714 66.503 282.779 68.4497C281.929 70.3118 281.504 72.3432 281.504 74.5439V114.918H275.003C273.899 114.918 272.794 114.918 271.689 114.918C270.584 114.918 269.48 114.918 268.375 114.918Z" fill="black"/>
<path d="M228.586 116.186C222.382 116.186 216.816 114.663 211.887 111.616C207.043 108.568 203.177 104.421 200.288 99.1732C197.483 93.9254 196.081 88.0429 196.081 81.5255C196.081 75.0081 197.483 69.1255 200.288 63.8777C203.177 58.6299 207.043 54.4825 211.887 51.4354C216.816 48.3883 222.382 46.8647 228.586 46.8647C234.534 46.8647 239.931 48.092 244.774 50.5466C249.703 52.9166 253.442 56.1753 255.992 60.3227L248.726 69.2101C247.366 67.2633 245.624 65.4859 243.5 63.8777C241.375 62.2695 239.123 60.9999 236.744 60.0688C234.364 59.1378 232.07 58.6722 229.86 58.6722C225.781 58.6722 222.127 59.6879 218.898 61.7193C215.754 63.6661 213.247 66.3746 211.377 69.8449C209.508 73.3152 208.573 77.2087 208.573 81.5255C208.573 85.8422 209.55 89.7357 211.505 93.206C213.459 96.5916 216.051 99.3002 219.28 101.332C222.51 103.363 226.079 104.379 229.988 104.379C232.282 104.379 234.492 103.998 236.616 103.236C238.826 102.474 240.95 101.332 242.99 99.808C245.029 98.2845 246.941 96.4224 248.726 94.2217L255.992 103.109C253.272 106.918 249.363 110.05 244.264 112.504C239.251 114.959 234.024 116.186 228.586 116.186Z" fill="black"/>
<path fill-rule="evenodd" clip-rule="evenodd" d="M580.631 111.618C576.042 114.665 570.985 116.188 565.462 116.188C551.868 116.188 545.776 110.975 542.366 108.058C542.288 107.991 542.21 107.925 542.135 107.86V114.919H528.878V20.8594H542.135V55.5833C544.73 52.7109 551.963 46.8668 564.314 46.8668C570.178 46.8668 575.489 48.348 580.248 51.3104C584.922 54.2729 588.661 58.378 591.465 63.6258C594.185 68.7889 595.544 74.7138 595.544 81.4005C595.544 88.0025 594.185 93.9274 591.465 99.1752C588.746 104.423 585.134 108.57 580.631 111.618ZM552.001 101.205C555.005 103.151 558.467 104.125 562.388 104.125C566.226 104.125 569.647 103.151 572.65 101.205C575.57 99.2578 577.906 96.5916 579.658 93.2059C581.327 89.7356 582.161 85.7998 582.161 81.3985C582.161 77.0817 581.327 73.2305 579.658 69.8449C577.906 66.4592 575.57 63.793 572.65 61.8463C569.647 59.8995 566.226 58.9261 562.388 58.9261C558.467 58.9261 555.005 59.8995 552.001 61.8463C548.998 63.793 546.662 66.4592 544.993 69.8449C543.241 73.2305 542.365 77.0817 542.365 81.3985C542.365 85.7998 543.241 89.7356 544.993 93.2059C546.662 96.5916 548.998 99.2578 552.001 101.205Z" fill="black"/>
<path fill-rule="evenodd" clip-rule="evenodd" d="M617.934 111.614C622.523 114.661 627.58 116.185 633.103 116.185C646.697 116.185 652.789 110.972 656.199 108.055C656.277 107.987 656.354 107.921 656.43 107.857V114.915H669.687V48.2599H656.43V55.5798C653.835 52.7074 646.602 46.8633 634.251 46.8633C628.387 46.8633 623.076 48.3445 618.317 51.307C613.643 54.2694 609.904 58.3745 607.1 63.6223C604.38 68.7854 603.021 74.7103 603.021 81.397C603.021 87.9991 604.38 93.924 607.1 99.1717C609.819 104.42 613.431 108.567 617.934 111.614ZM646.564 101.205C643.56 103.152 640.098 104.125 636.177 104.125C632.339 104.125 628.918 103.152 625.915 101.205C622.995 99.2581 620.659 96.5918 618.907 93.2062C617.238 89.7359 616.404 85.8001 616.404 81.3987C616.404 77.082 617.238 73.2308 618.907 69.8451C620.659 66.4595 622.995 63.7933 625.915 61.8465C628.918 59.8997 632.339 58.9264 636.177 58.9264C640.098 58.9264 643.56 59.8997 646.564 61.8465C649.567 63.7933 651.903 66.4595 653.572 69.8451C655.324 73.2308 656.2 77.082 656.2 81.3987C656.2 85.8001 655.324 89.7359 653.572 93.2062C651.903 96.5918 649.567 99.2581 646.564 101.205Z" fill="black"/>
</svg>
